<mxfile host="app.diagrams.net" modified="2020-08-19T14:25:32.536Z" agent="5.0 (Windows NT 10.0; Win64; x64) AppleWebKit/537.36 (KHTML, like Gecko) Chrome/83.0.4103.106 Safari/537.36 OPR/69.0.3686.66" etag="YD7fl_NBNDMowUIWHfNl" version="13.6.3" type="github">
  <diagram id="umDb_-zciCzAvkwwaGba" name="Page-1">
    <mxGraphModel dx="1484" dy="1016" grid="1" gridSize="10" guides="1" tooltips="1" connect="1" arrows="1" fold="1" page="1" pageScale="1" pageWidth="850" pageHeight="1100" math="0" shadow="0">
      <root>
        <mxCell id="0" />
        <mxCell id="1" parent="0" />
        <mxCell id="-TP9oQ7jm48y1_SzsRdm-7" style="edgeStyle=orthogonalEdgeStyle;rounded=0;orthogonalLoop=1;jettySize=auto;html=1;entryX=0.5;entryY=0;entryDx=0;entryDy=0;exitX=0.5;exitY=1;exitDx=0;exitDy=0;exitPerimeter=0;" parent="1" source="-TP9oQ7jm48y1_SzsRdm-1" edge="1" target="-TP9oQ7jm48y1_SzsRdm-4">
          <mxGeometry relative="1" as="geometry">
            <mxPoint x="390" y="240" as="targetPoint" />
          </mxGeometry>
        </mxCell>
        <mxCell id="-TP9oQ7jm48y1_SzsRdm-1" value="&lt;font style=&quot;font-size: 18px&quot;&gt;Start&lt;br&gt;&lt;/font&gt;" style="rounded=1;whiteSpace=wrap;html=1;" parent="1" vertex="1">
          <mxGeometry x="330" y="140" width="120" height="60" as="geometry" />
        </mxCell>
        <mxCell id="-TP9oQ7jm48y1_SzsRdm-4" value="&lt;font style=&quot;font-size: 18px&quot;&gt;MAXSAMPLE = 300&lt;/font&gt;" style="rounded=0;whiteSpace=wrap;html=1;" parent="1" vertex="1">
          <mxGeometry x="305" y="250" width="170" height="60" as="geometry" />
        </mxCell>
        <mxCell id="-TP9oQ7jm48y1_SzsRdm-12" style="edgeStyle=orthogonalEdgeStyle;rounded=0;orthogonalLoop=1;jettySize=auto;html=1;entryX=0.5;entryY=0;entryDx=0;entryDy=0;exitX=0.5;exitY=1;exitDx=0;exitDy=0;exitPerimeter=0;" parent="1" edge="1" target="-TP9oQ7jm48y1_SzsRdm-13" source="-TP9oQ7jm48y1_SzsRdm-4">
          <mxGeometry relative="1" as="geometry">
            <mxPoint x="389.5" y="360" as="targetPoint" />
            <mxPoint x="389.5" y="310" as="sourcePoint" />
          </mxGeometry>
        </mxCell>
        <mxCell id="-TP9oQ7jm48y1_SzsRdm-15" style="edgeStyle=orthogonalEdgeStyle;rounded=0;orthogonalLoop=1;jettySize=auto;html=1;exitX=0;exitY=0.5;exitDx=0;exitDy=0;entryX=0.5;entryY=0;entryDx=0;entryDy=0;entryPerimeter=0;" parent="1" source="-TP9oQ7jm48y1_SzsRdm-13" edge="1" target="-TP9oQ7jm48y1_SzsRdm-23">
          <mxGeometry relative="1" as="geometry">
            <mxPoint x="210" y="560" as="targetPoint" />
            <Array as="points">
              <mxPoint x="210" y="455" />
            </Array>
          </mxGeometry>
        </mxCell>
        <mxCell id="-TP9oQ7jm48y1_SzsRdm-13" value="&lt;font size=&quot;3&quot;&gt;IF &lt;br&gt;MAXSAMPLE &amp;gt; 0&lt;/font&gt;" style="rhombus;whiteSpace=wrap;html=1;" parent="1" vertex="1">
          <mxGeometry x="270" y="370" width="240" height="170" as="geometry" />
        </mxCell>
        <mxCell id="-TP9oQ7jm48y1_SzsRdm-16" style="edgeStyle=orthogonalEdgeStyle;rounded=0;orthogonalLoop=1;jettySize=auto;html=1;entryX=0.5;entryY=0;entryDx=0;entryDy=0;exitX=1;exitY=0.5;exitDx=0;exitDy=0;" parent="1" source="-TP9oQ7jm48y1_SzsRdm-13" edge="1" target="-TP9oQ7jm48y1_SzsRdm-58">
          <mxGeometry relative="1" as="geometry">
            <mxPoint x="600" y="610" as="targetPoint" />
            <mxPoint x="510" y="455" as="sourcePoint" />
            <Array as="points">
              <mxPoint x="600" y="455" />
            </Array>
          </mxGeometry>
        </mxCell>
        <mxCell id="-TP9oQ7jm48y1_SzsRdm-17" value="YES" style="text;html=1;align=center;verticalAlign=middle;resizable=0;points=[];autosize=1;" parent="1" vertex="1">
          <mxGeometry x="180" y="430" width="40" height="20" as="geometry" />
        </mxCell>
        <mxCell id="-TP9oQ7jm48y1_SzsRdm-18" value="NO" style="text;html=1;align=center;verticalAlign=middle;resizable=0;points=[];autosize=1;" parent="1" vertex="1">
          <mxGeometry x="555" y="430" width="30" height="20" as="geometry" />
        </mxCell>
        <mxCell id="-TP9oQ7jm48y1_SzsRdm-20" style="edgeStyle=orthogonalEdgeStyle;rounded=0;orthogonalLoop=1;jettySize=auto;html=1;exitX=0;exitY=0.5;exitDx=0;exitDy=0;entryX=0.5;entryY=0;entryDx=0;entryDy=0;" parent="1" source="-TP9oQ7jm48y1_SzsRdm-23" edge="1" target="-TP9oQ7jm48y1_SzsRdm-24">
          <mxGeometry relative="1" as="geometry">
            <mxPoint x="60" y="740" as="targetPoint" />
            <mxPoint x="80" y="640" as="sourcePoint" />
            <Array as="points">
              <mxPoint x="70" y="655" />
            </Array>
          </mxGeometry>
        </mxCell>
        <mxCell id="-TP9oQ7jm48y1_SzsRdm-21" style="edgeStyle=orthogonalEdgeStyle;rounded=0;orthogonalLoop=1;jettySize=auto;html=1;exitX=1;exitY=0.5;exitDx=0;exitDy=0;entryX=0.471;entryY=0;entryDx=0;entryDy=0;entryPerimeter=0;" parent="1" source="-TP9oQ7jm48y1_SzsRdm-23" edge="1" target="NQL3DIHMLvO8vahwlyJR-2">
          <mxGeometry relative="1" as="geometry">
            <mxPoint x="370" y="740" as="targetPoint" />
            <mxPoint x="330" y="660" as="sourcePoint" />
            <Array as="points">
              <mxPoint x="370" y="655" />
            </Array>
          </mxGeometry>
        </mxCell>
        <mxCell id="-TP9oQ7jm48y1_SzsRdm-23" value="&lt;font size=&quot;3&quot;&gt;IF &lt;br&gt;MAXSAMPLE = 300&lt;/font&gt;" style="rhombus;whiteSpace=wrap;html=1;" parent="1" vertex="1">
          <mxGeometry x="90" y="570" width="240" height="170" as="geometry" />
        </mxCell>
        <mxCell id="-TP9oQ7jm48y1_SzsRdm-24" value="&lt;font size=&quot;3&quot;&gt;Enter name&lt;br&gt;AND&lt;br&gt;Create a folder for person image&lt;br&gt;&lt;/font&gt;" style="rounded=0;whiteSpace=wrap;html=1;" parent="1" vertex="1">
          <mxGeometry x="10" y="750" width="120" height="110" as="geometry" />
        </mxCell>
        <mxCell id="-TP9oQ7jm48y1_SzsRdm-26" value="NO" style="text;html=1;align=center;verticalAlign=middle;resizable=0;points=[];autosize=1;" parent="1" vertex="1">
          <mxGeometry x="370" y="630" width="30" height="20" as="geometry" />
        </mxCell>
        <mxCell id="-TP9oQ7jm48y1_SzsRdm-27" value="YES" style="text;html=1;align=center;verticalAlign=middle;resizable=0;points=[];autosize=1;" parent="1" vertex="1">
          <mxGeometry x="50" y="630" width="40" height="20" as="geometry" />
        </mxCell>
        <mxCell id="-TP9oQ7jm48y1_SzsRdm-32" value="&lt;font style=&quot;font-size: 18px&quot;&gt;Initialize Webcam&lt;/font&gt;" style="rounded=0;whiteSpace=wrap;html=1;" parent="1" vertex="1">
          <mxGeometry x="10" y="1010" width="120" height="60" as="geometry" />
        </mxCell>
        <mxCell id="-TP9oQ7jm48y1_SzsRdm-33" style="edgeStyle=orthogonalEdgeStyle;rounded=0;orthogonalLoop=1;jettySize=auto;html=1;entryX=0.5;entryY=0;entryDx=0;entryDy=0;exitX=0.5;exitY=1;exitDx=0;exitDy=0;" parent="1" edge="1" target="-TP9oQ7jm48y1_SzsRdm-34" source="NQL3DIHMLvO8vahwlyJR-2">
          <mxGeometry relative="1" as="geometry">
            <mxPoint x="369.5" y="860" as="targetPoint" />
            <mxPoint x="369.5" y="810" as="sourcePoint" />
            <Array as="points" />
          </mxGeometry>
        </mxCell>
        <mxCell id="-TP9oQ7jm48y1_SzsRdm-34" value="&lt;span style=&quot;font-size: 18px&quot;&gt;Convert to gray&lt;/span&gt;" style="rounded=0;whiteSpace=wrap;html=1;" parent="1" vertex="1">
          <mxGeometry x="290" y="830" width="170" height="60" as="geometry" />
        </mxCell>
        <mxCell id="-TP9oQ7jm48y1_SzsRdm-35" style="edgeStyle=orthogonalEdgeStyle;rounded=0;orthogonalLoop=1;jettySize=auto;html=1;entryX=0.5;entryY=0;entryDx=0;entryDy=0;exitX=0.5;exitY=1;exitDx=0;exitDy=0;" parent="1" edge="1" target="-TP9oQ7jm48y1_SzsRdm-36" source="-TP9oQ7jm48y1_SzsRdm-34">
          <mxGeometry relative="1" as="geometry">
            <mxPoint x="369.5" y="980" as="targetPoint" />
            <mxPoint x="369.5" y="930" as="sourcePoint" />
          </mxGeometry>
        </mxCell>
        <mxCell id="-TP9oQ7jm48y1_SzsRdm-36" value="&lt;span style=&quot;font-size: 18px&quot;&gt;Detect face&lt;/span&gt;" style="rounded=0;whiteSpace=wrap;html=1;" parent="1" vertex="1">
          <mxGeometry x="290" y="920" width="170" height="60" as="geometry" />
        </mxCell>
        <mxCell id="-TP9oQ7jm48y1_SzsRdm-37" style="edgeStyle=orthogonalEdgeStyle;rounded=0;orthogonalLoop=1;jettySize=auto;html=1;entryX=0.5;entryY=0;entryDx=0;entryDy=0;exitX=0.5;exitY=1;exitDx=0;exitDy=0;" parent="1" edge="1" target="-TP9oQ7jm48y1_SzsRdm-38" source="-TP9oQ7jm48y1_SzsRdm-36">
          <mxGeometry relative="1" as="geometry">
            <mxPoint x="369.5" y="1100" as="targetPoint" />
            <mxPoint x="369.5" y="1050" as="sourcePoint" />
          </mxGeometry>
        </mxCell>
        <mxCell id="-TP9oQ7jm48y1_SzsRdm-38" value="&lt;font style=&quot;font-size: 18px&quot;&gt;Create rectangle around face&lt;br&gt;&lt;/font&gt;" style="rounded=0;whiteSpace=wrap;html=1;" parent="1" vertex="1">
          <mxGeometry x="290" y="1010" width="170" height="60" as="geometry" />
        </mxCell>
        <mxCell id="-TP9oQ7jm48y1_SzsRdm-39" style="edgeStyle=orthogonalEdgeStyle;rounded=0;orthogonalLoop=1;jettySize=auto;html=1;entryX=0.5;entryY=0;entryDx=0;entryDy=0;exitX=0.5;exitY=1;exitDx=0;exitDy=0;" parent="1" edge="1" target="-TP9oQ7jm48y1_SzsRdm-40" source="-TP9oQ7jm48y1_SzsRdm-38">
          <mxGeometry relative="1" as="geometry">
            <mxPoint x="369.5" y="1220" as="targetPoint" />
            <mxPoint x="369.5" y="1170" as="sourcePoint" />
          </mxGeometry>
        </mxCell>
        <mxCell id="-TP9oQ7jm48y1_SzsRdm-40" value="&lt;font style=&quot;font-size: 18px&quot;&gt;Put left image to be taken on image&lt;br&gt;&lt;/font&gt;" style="rounded=0;whiteSpace=wrap;html=1;" parent="1" vertex="1">
          <mxGeometry x="290" y="1110" width="170" height="60" as="geometry" />
        </mxCell>
        <mxCell id="-TP9oQ7jm48y1_SzsRdm-41" style="edgeStyle=orthogonalEdgeStyle;rounded=0;orthogonalLoop=1;jettySize=auto;html=1;entryX=0.5;entryY=0;entryDx=0;entryDy=0;exitX=0.5;exitY=1;exitDx=0;exitDy=0;" parent="1" edge="1" target="-TP9oQ7jm48y1_SzsRdm-42" source="-TP9oQ7jm48y1_SzsRdm-40">
          <mxGeometry relative="1" as="geometry">
            <mxPoint x="369.5" y="1340" as="targetPoint" />
            <mxPoint x="369.5" y="1290" as="sourcePoint" />
          </mxGeometry>
        </mxCell>
        <mxCell id="-TP9oQ7jm48y1_SzsRdm-42" value="&lt;font style=&quot;font-size: 18px&quot;&gt;Display on screen&lt;br&gt;&lt;/font&gt;" style="rounded=0;whiteSpace=wrap;html=1;" parent="1" vertex="1">
          <mxGeometry x="290" y="1200" width="170" height="60" as="geometry" />
        </mxCell>
        <mxCell id="-TP9oQ7jm48y1_SzsRdm-43" style="edgeStyle=orthogonalEdgeStyle;rounded=0;orthogonalLoop=1;jettySize=auto;html=1;entryX=0.468;entryY=0;entryDx=0;entryDy=0;entryPerimeter=0;exitX=0.456;exitY=1.001;exitDx=0;exitDy=0;exitPerimeter=0;" parent="1" edge="1" target="-TP9oQ7jm48y1_SzsRdm-44" source="-TP9oQ7jm48y1_SzsRdm-42">
          <mxGeometry relative="1" as="geometry">
            <mxPoint x="369.5" y="1460" as="targetPoint" />
            <mxPoint x="369.5" y="1410" as="sourcePoint" />
          </mxGeometry>
        </mxCell>
        <mxCell id="-TP9oQ7jm48y1_SzsRdm-51" style="edgeStyle=orthogonalEdgeStyle;rounded=0;orthogonalLoop=1;jettySize=auto;html=1;exitX=1;exitY=0.5;exitDx=0;exitDy=0;entryX=0.5;entryY=1;entryDx=0;entryDy=0;" parent="1" edge="1" target="-TP9oQ7jm48y1_SzsRdm-13" source="-TP9oQ7jm48y1_SzsRdm-54">
          <mxGeometry relative="1" as="geometry">
            <mxPoint x="390" y="560" as="targetPoint" />
            <mxPoint x="470" y="1610" as="sourcePoint" />
            <Array as="points">
              <mxPoint x="520" y="1440" />
              <mxPoint x="520" y="540" />
            </Array>
          </mxGeometry>
        </mxCell>
        <mxCell id="-TP9oQ7jm48y1_SzsRdm-44" value="&lt;font style=&quot;font-size: 18px&quot;&gt;Crop and Save face&lt;br&gt;&lt;/font&gt;" style="rounded=0;whiteSpace=wrap;html=1;" parent="1" vertex="1">
          <mxGeometry x="290" y="1300" width="170" height="60" as="geometry" />
        </mxCell>
        <mxCell id="-TP9oQ7jm48y1_SzsRdm-48" value="" style="endArrow=classic;html=1;exitX=1;exitY=0.75;exitDx=0;exitDy=0;entryX=0;entryY=0.5;entryDx=0;entryDy=0;" parent="1" source="Km6ifxVMez6fb6SqVy8D-1" edge="1" target="NQL3DIHMLvO8vahwlyJR-2">
          <mxGeometry width="50" height="50" relative="1" as="geometry">
            <mxPoint x="140" y="780" as="sourcePoint" />
            <mxPoint x="280" y="780" as="targetPoint" />
            <Array as="points">
              <mxPoint x="170" y="820" />
            </Array>
          </mxGeometry>
        </mxCell>
        <mxCell id="-TP9oQ7jm48y1_SzsRdm-54" value="&lt;font style=&quot;font-size: 18px&quot;&gt;&lt;span style=&quot;font-size: medium&quot;&gt;MAXSAMPLE =&amp;nbsp;&lt;br&gt;&lt;/span&gt;&lt;span style=&quot;font-size: medium&quot;&gt;MAXSAMPLE - 1&lt;/span&gt;&lt;span style=&quot;font-size: medium&quot;&gt;&amp;nbsp;&lt;/span&gt;&lt;br&gt;&lt;/font&gt;" style="rounded=0;whiteSpace=wrap;html=1;" parent="1" vertex="1">
          <mxGeometry x="290" y="1410" width="170" height="60" as="geometry" />
        </mxCell>
        <mxCell id="-TP9oQ7jm48y1_SzsRdm-55" style="edgeStyle=orthogonalEdgeStyle;rounded=0;orthogonalLoop=1;jettySize=auto;html=1;exitX=0.467;exitY=1.012;exitDx=0;exitDy=0;exitPerimeter=0;entryX=0.467;entryY=0;entryDx=0;entryDy=0;entryPerimeter=0;" parent="1" source="-TP9oQ7jm48y1_SzsRdm-44" edge="1" target="-TP9oQ7jm48y1_SzsRdm-54">
          <mxGeometry relative="1" as="geometry">
            <mxPoint x="375" y="1580" as="targetPoint" />
            <mxPoint x="374.5" y="1540" as="sourcePoint" />
            <Array as="points" />
          </mxGeometry>
        </mxCell>
        <mxCell id="-TP9oQ7jm48y1_SzsRdm-58" value="&lt;font style=&quot;font-size: 18px&quot;&gt;END&lt;/font&gt;" style="rounded=1;whiteSpace=wrap;html=1;" parent="1" vertex="1">
          <mxGeometry x="540" y="620" width="120" height="60" as="geometry" />
        </mxCell>
        <mxCell id="NQL3DIHMLvO8vahwlyJR-1" style="edgeStyle=orthogonalEdgeStyle;rounded=0;orthogonalLoop=1;jettySize=auto;html=1;exitX=0.5;exitY=1;exitDx=0;exitDy=0;entryX=0.5;entryY=0;entryDx=0;entryDy=0;" parent="1" edge="1" target="Km6ifxVMez6fb6SqVy8D-3" source="-TP9oQ7jm48y1_SzsRdm-24">
          <mxGeometry relative="1" as="geometry">
            <mxPoint x="60" y="910" as="targetPoint" />
            <mxPoint x="60" y="860" as="sourcePoint" />
          </mxGeometry>
        </mxCell>
        <mxCell id="NQL3DIHMLvO8vahwlyJR-2" value="&lt;span style=&quot;font-size: 18px&quot;&gt;Take image&lt;/span&gt;" style="rounded=0;whiteSpace=wrap;html=1;" parent="1" vertex="1">
          <mxGeometry x="290" y="750" width="170" height="60" as="geometry" />
        </mxCell>
        <mxCell id="Km6ifxVMez6fb6SqVy8D-1" value="&lt;font size=&quot;3&quot;&gt;Decrement MAXSAMPLE BY 1&lt;/font&gt;" style="rounded=0;whiteSpace=wrap;html=1;" vertex="1" parent="1">
          <mxGeometry x="10" y="1100" width="120" height="60" as="geometry" />
        </mxCell>
        <mxCell id="Km6ifxVMez6fb6SqVy8D-2" style="edgeStyle=orthogonalEdgeStyle;rounded=0;orthogonalLoop=1;jettySize=auto;html=1;entryX=0.5;entryY=0;entryDx=0;entryDy=0;exitX=0.5;exitY=1;exitDx=0;exitDy=0;" edge="1" parent="1" source="-TP9oQ7jm48y1_SzsRdm-32" target="Km6ifxVMez6fb6SqVy8D-1">
          <mxGeometry relative="1" as="geometry">
            <mxPoint x="60" y="1130" as="targetPoint" />
            <mxPoint x="70" y="1150" as="sourcePoint" />
            <Array as="points" />
          </mxGeometry>
        </mxCell>
        <mxCell id="Km6ifxVMez6fb6SqVy8D-3" value="&lt;font style=&quot;font-size: 18px&quot;&gt;Change directory to &#39;img&#39; where image store&lt;/font&gt;" style="rounded=0;whiteSpace=wrap;html=1;" vertex="1" parent="1">
          <mxGeometry x="10" y="890" width="120" height="80" as="geometry" />
        </mxCell>
        <mxCell id="Km6ifxVMez6fb6SqVy8D-4" style="edgeStyle=orthogonalEdgeStyle;rounded=0;orthogonalLoop=1;jettySize=auto;html=1;exitX=0.5;exitY=1;exitDx=0;exitDy=0;" edge="1" parent="1" source="Km6ifxVMez6fb6SqVy8D-3" target="-TP9oQ7jm48y1_SzsRdm-32">
          <mxGeometry relative="1" as="geometry">
            <mxPoint x="70" y="1090" as="targetPoint" />
            <mxPoint x="60" y="970" as="sourcePoint" />
          </mxGeometry>
        </mxCell>
      </root>
    </mxGraphModel>
  </diagram>
</mxfile>
